<?xml version="1.0" encoding="utf-8"?>
<!-- Generator: Adobe Illustrator 22.1.0, SVG Export Plug-In . SVG Version: 6.00 Build 0)  -->
<svg version="1.1" id="Layer_1" xmlns="http://www.w3.org/2000/svg" xmlns:xlink="http://www.w3.org/1999/xlink" x="0px" y="0px"
	 viewBox="0 0 109.7 125.1" style="enable-background:new 0 0 109.7 125.1;" xml:space="preserve">
<style type="text/css">
	.st0{fill:#FFFFFF;}
	.st1{fill:#00CE22;}
	.st2{fill:#04E632;}
	.st3{opacity:5.000000e-02;}
</style>
<g>
	<g>
		<circle class="st0" cx="92.3" cy="17.4" r="17.4"/>
		<path class="st0" d="M46.4,58.5c11.2,0,20.2,9.1,20.2,20.2c0,11.2-9.1,20.2-20.2,20.2c-11.2,0-20.2-9.1-20.2-20.2
			C26.1,67.6,35.2,58.5,46.4,58.5 M46.4,32.4C20.8,32.4,0,53.2,0,78.8s20.8,46.4,46.4,46.4c25.6,0,46.4-20.8,46.4-46.4
			S72,32.4,46.4,32.4L46.4,32.4z"/>
	</g>
	<circle class="st1" cx="92.3" cy="17.4" r="17.4"/>
	<path class="st2" d="M46.4,58.5c11.2,0,20.2,9.1,20.2,20.2c0,11.2-9.1,20.2-20.2,20.2c-11.2,0-20.2-9.1-20.2-20.2
		C26.1,67.6,35.2,58.5,46.4,58.5 M46.4,32.4C20.8,32.4,0,53.2,0,78.8s20.8,46.4,46.4,46.4c25.6,0,46.4-20.8,46.4-46.4
		S72,32.4,46.4,32.4L46.4,32.4z"/>
	<g>
		<circle class="st2" cx="92.3" cy="17.4" r="17.4"/>
	</g>
	<path class="st3" d="M46.4,99.8c-11.6,0-21-9.4-21-21s9.4-21,21-21s21,9.4,21,21S58,99.8,46.4,99.8z M46.4,58.5
		c-11.2,0-20.2,9.1-20.2,20.2S35.2,99,46.4,99s20.2-9.1,20.2-20.2S57.5,58.5,46.4,58.5z"/>
	<path class="st3" d="M46.4,33.1C71.5,33.1,92,53.6,92,78.8s-20.5,45.6-45.6,45.6S0.7,103.9,0.7,78.8S21.2,33.1,46.4,33.1
		 M46.4,32.4C20.8,32.4,0,53.2,0,78.8c0,25.6,20.8,46.4,46.4,46.4c25.6,0,46.4-20.8,46.4-46.4C92.8,53.2,72,32.4,46.4,32.4
		L46.4,32.4z"/>
	<path class="st3" d="M92.3,0.7c9.2,0,16.7,7.5,16.7,16.7s-7.5,16.7-16.7,16.7s-16.7-7.5-16.7-16.7S83.1,0.7,92.3,0.7 M92.3,0
		c-9.6,0-17.4,7.8-17.4,17.4c0,9.6,7.8,17.4,17.4,17.4s17.4-7.8,17.4-17.4C109.7,7.8,101.9,0,92.3,0L92.3,0z"/>
</g>
</svg>
